REM DIRINDEX 1\2,1\3,1\4,1\5
REM DIRNAME folder01,folder02,folder03,folder04,folder05
TITLE ""
FILE "P1Q_t_0422-0431.mp3" MP3
  TRACK 01 AUDIO
    TITLE "3:cjc005_2168"
    INDEX 01 00:00:00
  TRACK 02 AUDIO
    TITLE "0:"
    INDEX 01 00:00:68
  TRACK 03 AUDIO
    TITLE "4:cjc005_2169"
    INDEX 01 00:01:24
  TRACK 04 AUDIO
    TITLE "0:"
    INDEX 01 00:02:47
  TRACK 05 AUDIO
    TITLE "5:cjc005_2170"
    INDEX 01 00:03:00
  TRACK 06 AUDIO
    TITLE "0:"
    INDEX 01 00:07:05
  TRACK 07 AUDIO
    TITLE "3:cjc005_2171"
    INDEX 01 00:07:58
  TRACK 08 AUDIO
    TITLE "0:"
    INDEX 01 00:09:20
  TRACK 09 AUDIO
    TITLE "4:cjc005_2172"
    INDEX 01 00:09:55
  TRACK 10 AUDIO
    TITLE "0:"
    INDEX 01 00:11:01
  TRACK 11 AUDIO
    TITLE "5:cjc005_2173"
    INDEX 01 00:11:21
  TRACK 12 AUDIO
    TITLE "0:"
    INDEX 01 00:16:14
  TRACK 13 AUDIO
    TITLE "3:cjc005_2174"
    INDEX 01 00:16:63
  TRACK 14 AUDIO
    TITLE "0:"
    INDEX 01 00:17:74
  TRACK 15 AUDIO
    TITLE "4:cjc005_2175"
    INDEX 01 00:18:31
  TRACK 16 AUDIO
    TITLE "0:"
    INDEX 01 00:19:56
  TRACK 17 AUDIO
    TITLE "5:cjc005_2176"
    INDEX 01 00:20:06
  TRACK 18 AUDIO
    TITLE "0:"
    INDEX 01 00:24:41
  TRACK 19 AUDIO
    TITLE "3:cjc005_2177"
    INDEX 01 00:25:19
  TRACK 20 AUDIO
    TITLE "0:"
    INDEX 01 00:26:44
  TRACK 21 AUDIO
    TITLE "4:cjc005_2178"
    INDEX 01 00:26:67
  TRACK 22 AUDIO
    TITLE "0:"
    INDEX 01 00:28:31
  TRACK 23 AUDIO
    TITLE "5:cjc005_2179"
    INDEX 01 00:28:55
  TRACK 24 AUDIO
    TITLE "0:"
    INDEX 01 00:33:13
  TRACK 25 AUDIO
    TITLE "3:cjc005_2180"
    INDEX 01 00:33:66
  TRACK 26 AUDIO
    TITLE "0:"
    INDEX 01 00:35:21
  TRACK 27 AUDIO
    TITLE "4:cjc005_2181"
    INDEX 01 00:35:49
  TRACK 28 AUDIO
    TITLE "0:"
    INDEX 01 00:37:42
  TRACK 29 AUDIO
    TITLE "5:cjc005_2182"
    INDEX 01 00:37:65
  TRACK 30 AUDIO
    TITLE "0:"
    INDEX 01 00:43:17
  TRACK 31 AUDIO
    TITLE "3:cjc005_2183"
    INDEX 01 00:43:72
  TRACK 32 AUDIO
    TITLE "0:"
    INDEX 01 00:45:12
  TRACK 33 AUDIO
    TITLE "4:cjc005_2184"
    INDEX 01 00:45:39
  TRACK 34 AUDIO
    TITLE "0:"
    INDEX 01 00:47:07
  TRACK 35 AUDIO
    TITLE "5:cjc005_2185"
    INDEX 01 00:47:36
  TRACK 36 AUDIO
    TITLE "0:"
    INDEX 01 00:50:19
  TRACK 37 AUDIO
    TITLE "3:cjc005_2186"
    INDEX 01 00:50:70
  TRACK 38 AUDIO
    TITLE "0:"
    INDEX 01 00:52:14
  TRACK 39 AUDIO
    TITLE "4:cjc005_2187"
    INDEX 01 00:52:51
  TRACK 40 AUDIO
    TITLE "0:"
    INDEX 01 00:54:15
  TRACK 41 AUDIO
    TITLE "5:cjc005_2188"
    INDEX 01 00:54:42
  TRACK 42 AUDIO
    TITLE "0:"
    INDEX 01 00:57:15
  TRACK 43 AUDIO
    TITLE "3:cjc005_2189"
    INDEX 01 00:57:64
  TRACK 44 AUDIO
    TITLE "0:"
    INDEX 01 00:59:08
  TRACK 45 AUDIO
    TITLE "4:cjc005_2190"
    INDEX 01 00:59:32
  TRACK 46 AUDIO
    TITLE "0:"
    INDEX 01 01:00:68
  TRACK 47 AUDIO
    TITLE "5:cjc005_2191"
    INDEX 01 01:01:15
  TRACK 48 AUDIO
    TITLE "0:"
    INDEX 01 01:04:72
  TRACK 49 AUDIO
    TITLE "3:cjc005_2192"
    INDEX 01 01:05:60
  TRACK 50 AUDIO
    TITLE "0:"
    INDEX 01 01:07:00
  TRACK 51 AUDIO
    TITLE "4:cjc005_2193"
    INDEX 01 01:07:33
  TRACK 52 AUDIO
    TITLE "0:"
    INDEX 01 01:08:62
  TRACK 53 AUDIO
    TITLE "5:cjc005_2194"
    INDEX 01 01:09:09
  TRACK 54 AUDIO
    TITLE "0:"
    INDEX 01 01:12:56
  TRACK 55 AUDIO
    TITLE "3:cjc005_2195"
    INDEX 01 01:13:34
  TRACK 56 AUDIO
    TITLE "0:"
    INDEX 01 01:14:39
  TRACK 57 AUDIO
    TITLE "4:cjc005_2196"
    INDEX 01 01:14:63
  TRACK 58 AUDIO
    TITLE "0:"
    INDEX 01 01:16:11
  TRACK 59 AUDIO
    TITLE "5:cjc005_2197"
    INDEX 01 01:16:34
  TRACK 60 AUDIO
    TITLE "0:"
    INDEX 01 01:19:70
